<mxfile host="app.diagrams.net" modified="2024-03-11T01:39:33.809Z" agent="Mozilla/5.0 (Windows NT 10.0; Win64; x64) AppleWebKit/537.36 (KHTML, like Gecko) Chrome/122.0.0.0 Safari/537.36" etag="jj3S7QcqA_3AjiFMAItE" version="24.0.4" type="github">
  <diagram name="Page-1" id="AJPe_oTjbrZDUSIA43D6">
    <mxGraphModel dx="2954" dy="1106" grid="1" gridSize="10" guides="1" tooltips="1" connect="1" arrows="1" fold="1" page="1" pageScale="1" pageWidth="827" pageHeight="1169" math="0" shadow="0">
      <root>
        <mxCell id="0" />
        <mxCell id="1" parent="0" />
        <mxCell id="KUIXBKlgRZ6tORYIY5aK-1" value="Label Studio" style="rounded=1;whiteSpace=wrap;html=1;" vertex="1" parent="1">
          <mxGeometry x="350" y="530" width="170" height="60" as="geometry" />
        </mxCell>
        <mxCell id="KUIXBKlgRZ6tORYIY5aK-3" value="PostgreSQL" style="shape=cylinder3;whiteSpace=wrap;html=1;boundedLbl=1;backgroundOutline=1;size=15;" vertex="1" parent="1">
          <mxGeometry x="380" y="680" width="110" height="80" as="geometry" />
        </mxCell>
        <mxCell id="KUIXBKlgRZ6tORYIY5aK-4" value="" style="shape=flexArrow;endArrow=classic;startArrow=classic;html=1;rounded=0;entryX=0.5;entryY=1;entryDx=0;entryDy=0;exitX=0.5;exitY=0;exitDx=0;exitDy=0;exitPerimeter=0;" edge="1" parent="1">
          <mxGeometry width="100" height="100" relative="1" as="geometry">
            <mxPoint x="434.5" y="680" as="sourcePoint" />
            <mxPoint x="434.5" y="590" as="targetPoint" />
          </mxGeometry>
        </mxCell>
      </root>
    </mxGraphModel>
  </diagram>
</mxfile>
